<svg xmlns="http://www.w3.org/2000/svg" width="2200" height="1500" viewBox="0 0 2200 1500">
  <defs>
    <style>
      .bg { fill: #ffffff; }
      .class { fill: #ffffff; stroke: #111827; stroke-width: 2; }
      .head { fill: #f3f4f6; stroke: #111827; stroke-width: 2; }
      .name { font: 700 18px Arial, Helvetica, sans-serif; fill: #111827; text-anchor: middle; }
      .member { font: 15px "Consolas", "Courier New", monospace; fill: #111827; }
      .section { stroke: #111827; stroke-width: 1.5; }
      .rel { fill: none; stroke: #374151; stroke-width: 2; }
      .rel-dash { fill: none; stroke: #374151; stroke-width: 2; stroke-dasharray: 8 6; }
      .card { font: 15px Arial, Helvetica, sans-serif; fill: #111827; }
      .note { fill: #fffbeb; stroke: #92400e; stroke-width: 1.5; }
      .label { font: 15px Arial, Helvetica, sans-serif; fill: #111827; }
    </style>
    <marker id="arrow" markerWidth="12" markerHeight="12" refX="10" refY="6" orient="auto">
      <path d="M 0 0 L 12 6 L 0 12 z" fill="#374151"/>
    </marker>
    <marker id="hollow" markerWidth="13" markerHeight="13" refX="11" refY="6.5" orient="auto">
      <path d="M 1 1 L 12 6.5 L 1 12 z" fill="#ffffff" stroke="#374151" stroke-width="1.5"/>
    </marker>
  </defs>

  <rect class="bg" x="0" y="0" width="2200" height="1500"/>

  <!-- Core users -->
  <g id="User" transform="translate(80 125)">
    <rect class="class" width="250" height="220"/>
    <rect class="head" width="250" height="38"/>
    <text class="name" x="125" y="25">User</text>
    <line class="section" x1="0" y1="126" x2="250" y2="126"/>
    <text class="member" x="14" y="62">- id: bigint</text>
    <text class="member" x="14" y="84">- fullName: string</text>
    <text class="member" x="14" y="106">- email: string</text>
    <text class="member" x="14" y="150">+ isAdmin()</text>
    <text class="member" x="14" y="172">+ isInstructor()</text>
    <text class="member" x="14" y="194">+ hasAccessToCourse()</text>
  </g>

  <g id="Instructor" transform="translate(80 410)">
    <rect class="class" width="250" height="176"/>
    <rect class="head" width="250" height="38"/>
    <text class="name" x="125" y="25">Instructor</text>
    <line class="section" x1="0" y1="104" x2="250" y2="104"/>
    <text class="member" x="14" y="62">- instructorApprovalStatus</text>
    <text class="member" x="14" y="84">- status: string</text>
    <text class="member" x="14" y="128">+ createCourse()</text>
    <text class="member" x="14" y="150">+ viewRevenue()</text>
  </g>

  <g id="Admin" transform="translate(370 410)">
    <rect class="class" width="250" height="176"/>
    <rect class="head" width="250" height="38"/>
    <text class="name" x="125" y="25">Admin</text>
    <line class="section" x1="0" y1="104" x2="250" y2="104"/>
    <text class="member" x="14" y="62">- role: admin</text>
    <text class="member" x="14" y="84">- status: string</text>
    <text class="member" x="14" y="128">+ approveCourse()</text>
    <text class="member" x="14" y="150">+ manageUsers()</text>
  </g>

  <g id="Student" transform="translate(660 410)">
    <rect class="class" width="250" height="176"/>
    <rect class="head" width="250" height="38"/>
    <text class="name" x="125" y="25">Student</text>
    <line class="section" x1="0" y1="104" x2="250" y2="104"/>
    <text class="member" x="14" y="62">- role: user</text>
    <text class="member" x="14" y="84">- phone: string</text>
    <text class="member" x="14" y="128">+ enrollCourse()</text>
    <text class="member" x="14" y="150">+ learnLecture()</text>
  </g>

  <!-- Course content -->
  <g id="Category" transform="translate(465 125)">
    <rect class="class" width="250" height="176"/>
    <rect class="head" width="250" height="38"/>
    <text class="name" x="125" y="25">Category</text>
    <line class="section" x1="0" y1="104" x2="250" y2="104"/>
    <text class="member" x="14" y="62">- id: bigint</text>
    <text class="member" x="14" y="84">- name: string</text>
    <text class="member" x="14" y="128">+ createCategory()</text>
    <text class="member" x="14" y="150">+ updateCategory()</text>
  </g>

  <g id="SubCategory" transform="translate(760 125)">
    <rect class="class" width="250" height="176"/>
    <rect class="head" width="250" height="38"/>
    <text class="name" x="125" y="25">SubCategory</text>
    <line class="section" x1="0" y1="104" x2="250" y2="104"/>
    <text class="member" x="14" y="62">- id: bigint</text>
    <text class="member" x="14" y="84">- categoryId: bigint</text>
    <text class="member" x="14" y="128">+ createSubCategory()</text>
    <text class="member" x="14" y="150">+ updateSubCategory()</text>
  </g>

  <g id="Course" transform="translate(1060 110)">
    <rect class="class" width="290" height="250"/>
    <rect class="head" width="290" height="38"/>
    <text class="name" x="145" y="25">Course</text>
    <line class="section" x1="0" y1="148" x2="290" y2="148"/>
    <text class="member" x="14" y="62">- id: bigint</text>
    <text class="member" x="14" y="84">- instructorId: bigint</text>
    <text class="member" x="14" y="106">- categoryId: bigint</text>
    <text class="member" x="14" y="128">- title: string</text>
    <text class="member" x="14" y="172">+ createCourse()</text>
    <text class="member" x="14" y="194">+ submitForReview()</text>
    <text class="member" x="14" y="216">+ isPublished()</text>
  </g>

  <g id="CourseSection" transform="translate(1450 125)">
    <rect class="class" width="260" height="198"/>
    <rect class="head" width="260" height="38"/>
    <text class="name" x="130" y="25">CourseSection</text>
    <line class="section" x1="0" y1="126" x2="260" y2="126"/>
    <text class="member" x="14" y="62">- id: bigint</text>
    <text class="member" x="14" y="84">- courseId: bigint</text>
    <text class="member" x="14" y="106">- title: string</text>
    <text class="member" x="14" y="150">+ createSection()</text>
    <text class="member" x="14" y="172">+ updateSection()</text>
  </g>

  <g id="CourseLecture" transform="translate(1810 125)">
    <rect class="class" width="270" height="220"/>
    <rect class="head" width="270" height="38"/>
    <text class="name" x="135" y="25">CourseLecture</text>
    <line class="section" x1="0" y1="148" x2="270" y2="148"/>
    <text class="member" x="14" y="62">- id: bigint</text>
    <text class="member" x="14" y="84">- sectionId: bigint</text>
    <text class="member" x="14" y="106">- title: string</text>
    <text class="member" x="14" y="128">- contentType: string</text>
    <text class="member" x="14" y="172">+ createLecture()</text>
    <text class="member" x="14" y="194">+ generateTranscript()</text>
  </g>

  <!-- Learning -->
  <g id="Enrollment" transform="translate(465 690)">
    <rect class="class" width="285" height="220"/>
    <rect class="head" width="285" height="38"/>
    <text class="name" x="142.5" y="25">Enrollment</text>
    <line class="section" x1="0" y1="148" x2="285" y2="148"/>
    <text class="member" x="14" y="62">- id: bigint</text>
    <text class="member" x="14" y="84">- userId: bigint</text>
    <text class="member" x="14" y="106">- courseId: bigint</text>
    <text class="member" x="14" y="128">- status: string</text>
    <text class="member" x="14" y="172">+ isActive()</text>
    <text class="member" x="14" y="194">+ grantFromOrder()</text>
  </g>

  <g id="LessonProgress" transform="translate(830 690)">
    <rect class="class" width="285" height="220"/>
    <rect class="head" width="285" height="38"/>
    <text class="name" x="142.5" y="25">LessonProgress</text>
    <line class="section" x1="0" y1="148" x2="285" y2="148"/>
    <text class="member" x="14" y="62">- id: bigint</text>
    <text class="member" x="14" y="84">- enrollmentId: bigint</text>
    <text class="member" x="14" y="106">- lectureId: bigint</text>
    <text class="member" x="14" y="128">- isCompleted: boolean</text>
    <text class="member" x="14" y="172">+ markCompleted()</text>
    <text class="member" x="14" y="194">+ updateWatchTime()</text>
  </g>

  <g id="CourseProgress" transform="translate(1185 690)">
    <rect class="class" width="285" height="220"/>
    <rect class="head" width="285" height="38"/>
    <text class="name" x="142.5" y="25">CourseProgress</text>
    <line class="section" x1="0" y1="148" x2="285" y2="148"/>
    <text class="member" x="14" y="62">- id: bigint</text>
    <text class="member" x="14" y="84">- enrollmentId: bigint</text>
    <text class="member" x="14" y="106">- progressPercent: int</text>
    <text class="member" x="14" y="128">- completedAt: datetime</text>
    <text class="member" x="14" y="172">+ syncProgress()</text>
    <text class="member" x="14" y="194">+ getResumeLecture()</text>
  </g>

  <!-- Quiz -->
  <g id="Quiz" transform="translate(1475 430)">
    <rect class="class" width="260" height="220"/>
    <rect class="head" width="260" height="38"/>
    <text class="name" x="130" y="25">Quiz</text>
    <line class="section" x1="0" y1="148" x2="260" y2="148"/>
    <text class="member" x="14" y="62">- id: bigint</text>
    <text class="member" x="14" y="84">- courseId: bigint</text>
    <text class="member" x="14" y="106">- lectureId: bigint</text>
    <text class="member" x="14" y="128">- timeLimit: int</text>
    <text class="member" x="14" y="172">+ storeOrUpdate()</text>
    <text class="member" x="14" y="194">+ publishQuiz()</text>
  </g>

  <g id="QuizQuestion" transform="translate(1810 430)">
    <rect class="class" width="285" height="220"/>
    <rect class="head" width="285" height="38"/>
    <text class="name" x="142.5" y="25">QuizQuestion</text>
    <line class="section" x1="0" y1="148" x2="285" y2="148"/>
    <text class="member" x="14" y="62">- id: bigint</text>
    <text class="member" x="14" y="84">- quizId: bigint</text>
    <text class="member" x="14" y="106">- questionText: text</text>
    <text class="member" x="14" y="128">- type: string</text>
    <text class="member" x="14" y="172">+ createQuestion()</text>
    <text class="member" x="14" y="194">+ updateQuestion()</text>
  </g>

  <g id="QuizOption" transform="translate(1810 705)">
    <rect class="class" width="285" height="176"/>
    <rect class="head" width="285" height="38"/>
    <text class="name" x="142.5" y="25">QuizOption</text>
    <line class="section" x1="0" y1="104" x2="285" y2="104"/>
    <text class="member" x="14" y="62">- id: bigint</text>
    <text class="member" x="14" y="84">- isCorrect: boolean</text>
    <text class="member" x="14" y="128">+ createOption()</text>
    <text class="member" x="14" y="150">+ updateOption()</text>
  </g>

  <g id="QuizAttempt" transform="translate(1475 750)">
    <rect class="class" width="260" height="198"/>
    <rect class="head" width="260" height="38"/>
    <text class="name" x="130" y="25">QuizAttempt</text>
    <line class="section" x1="0" y1="126" x2="260" y2="126"/>
    <text class="member" x="14" y="62">- id: bigint</text>
    <text class="member" x="14" y="84">- userId: bigint</text>
    <text class="member" x="14" y="106">- score: int</text>
    <text class="member" x="14" y="150">+ submitQuiz()</text>
    <text class="member" x="14" y="172">+ calculateScore()</text>
  </g>

  <!-- Commerce -->
  <g id="Cart" transform="translate(80 995)">
    <rect class="class" width="250" height="176"/>
    <rect class="head" width="250" height="38"/>
    <text class="name" x="125" y="25">Cart</text>
    <line class="section" x1="0" y1="104" x2="250" y2="104"/>
    <text class="member" x="14" y="62">- userId: bigint</text>
    <text class="member" x="14" y="84">- courseId: bigint</text>
    <text class="member" x="14" y="128">+ addToCart()</text>
    <text class="member" x="14" y="150">+ removeCart()</text>
  </g>

  <g id="Coupon" transform="translate(80 1220)">
    <rect class="class" width="250" height="198"/>
    <rect class="head" width="250" height="38"/>
    <text class="name" x="125" y="25">Coupon</text>
    <line class="section" x1="0" y1="126" x2="250" y2="126"/>
    <text class="member" x="14" y="62">- code: string</text>
    <text class="member" x="14" y="84">- discountType: string</text>
    <text class="member" x="14" y="106">- discountValue: decimal</text>
    <text class="member" x="14" y="150">+ validateCoupon()</text>
    <text class="member" x="14" y="172">+ applyCoupon()</text>
  </g>

  <g id="Order" transform="translate(465 1040)">
    <rect class="class" width="285" height="220"/>
    <rect class="head" width="285" height="38"/>
    <text class="name" x="142.5" y="25">Order</text>
    <line class="section" x1="0" y1="148" x2="285" y2="148"/>
    <text class="member" x="14" y="62">- id: bigint</text>
    <text class="member" x="14" y="84">- userId: bigint</text>
    <text class="member" x="14" y="106">- totalAmount: decimal</text>
    <text class="member" x="14" y="128">- status: string</text>
    <text class="member" x="14" y="172">+ createOrder()</text>
    <text class="member" x="14" y="194">+ cancelOrder()</text>
  </g>

  <g id="Payment" transform="translate(830 1040)">
    <rect class="class" width="285" height="220"/>
    <rect class="head" width="285" height="38"/>
    <text class="name" x="142.5" y="25">Payment</text>
    <line class="section" x1="0" y1="148" x2="285" y2="148"/>
    <text class="member" x="14" y="62">- id: bigint</text>
    <text class="member" x="14" y="84">- amount: decimal</text>
    <text class="member" x="14" y="106">- paymentMethod: string</text>
    <text class="member" x="14" y="128">- paymentStatus: string</text>
    <text class="member" x="14" y="172">+ processPayment()</text>
    <text class="member" x="14" y="194">+ refundPayment()</text>
  </g>

  <g id="RefundRequest" transform="translate(1185 1040)">
    <rect class="class" width="285" height="220"/>
    <rect class="head" width="285" height="38"/>
    <text class="name" x="142.5" y="25">RefundRequest</text>
    <line class="section" x1="0" y1="148" x2="285" y2="148"/>
    <text class="member" x="14" y="62">- id: bigint</text>
    <text class="member" x="14" y="84">- orderId: bigint</text>
    <text class="member" x="14" y="106">- reason: text</text>
    <text class="member" x="14" y="128">- status: string</text>
    <text class="member" x="14" y="172">+ approve()</text>
    <text class="member" x="14" y="194">+ reject()</text>
  </g>

  <!-- AI tutor -->
  <g id="AiChatSession" transform="translate(1475 1040)">
    <rect class="class" width="285" height="220"/>
    <rect class="head" width="285" height="38"/>
    <text class="name" x="142.5" y="25">AiChatSession</text>
    <line class="section" x1="0" y1="148" x2="285" y2="148"/>
    <text class="member" x="14" y="62">- id: bigint</text>
    <text class="member" x="14" y="84">- userId: bigint</text>
    <text class="member" x="14" y="106">- courseId: bigint</text>
    <text class="member" x="14" y="128">- lectureId: bigint</text>
    <text class="member" x="14" y="172">+ getOrCreateSession()</text>
    <text class="member" x="14" y="194">+ close()</text>
  </g>

  <g id="AiChatMessage" transform="translate(1810 1040)">
    <rect class="class" width="285" height="220"/>
    <rect class="head" width="285" height="38"/>
    <text class="name" x="142.5" y="25">AiChatMessage</text>
    <line class="section" x1="0" y1="148" x2="285" y2="148"/>
    <text class="member" x="14" y="62">- id: bigint</text>
    <text class="member" x="14" y="84">- sessionId: bigint</text>
    <text class="member" x="14" y="106">- role: string</text>
    <text class="member" x="14" y="128">- content: text</text>
    <text class="member" x="14" y="172">+ addUserMessage()</text>
    <text class="member" x="14" y="194">+ addAssistantMessage()</text>
  </g>

  <g id="AiDocument" transform="translate(1475 1300)">
    <rect class="class" width="285" height="150"/>
    <rect class="head" width="285" height="38"/>
    <text class="name" x="142.5" y="25">AiDocument</text>
    <line class="section" x1="0" y1="104" x2="285" y2="104"/>
    <text class="member" x="14" y="62">- lectureId: bigint</text>
    <text class="member" x="14" y="84">- status: string</text>
    <text class="member" x="14" y="128">+ processDocument()</text>
  </g>

  <g id="AiDocumentChunk" transform="translate(1810 1300)">
    <rect class="class" width="285" height="150"/>
    <rect class="head" width="285" height="38"/>
    <text class="name" x="142.5" y="25">AiDocumentChunk</text>
    <line class="section" x1="0" y1="104" x2="285" y2="104"/>
    <text class="member" x="14" y="62">- documentId: bigint</text>
    <text class="member" x="14" y="84">- content: text</text>
    <text class="member" x="14" y="128">+ embedChunk()</text>
  </g>

  <!-- Relationships -->
  <line class="rel" x1="205" y1="345" x2="205" y2="410" marker-end="url(#hollow)"/>
  <line class="rel" x1="205" y1="345" x2="495" y2="410" marker-end="url(#hollow)"/>
  <line class="rel" x1="205" y1="345" x2="785" y2="410" marker-end="url(#hollow)"/>

  <line class="rel" x1="715" y1="213" x2="760" y2="213"/>
  <text class="label" x="724" y="198">1</text>
  <text class="label" x="738" y="236">0..*</text>

  <line class="rel" x1="1010" y1="213" x2="1060" y2="213"/>
  <text class="label" x="1018" y="198">1</text>
  <text class="label" x="1038" y="236">0..*</text>

  <line class="rel" x1="1350" y1="213" x2="1450" y2="213"/>
  <text class="label" x="1362" y="198">1</text>
  <text class="label" x="1420" y="236">1..*</text>

  <line class="rel" x1="1710" y1="224" x2="1810" y2="224"/>
  <text class="label" x="1722" y="209">1</text>
  <text class="label" x="1780" y="247">1..*</text>

  <path class="rel" d="M330 498 H1060"/>
  <text class="label" x="342" y="483">1 instructor</text>
  <text class="label" x="1010" y="520">0..* courses</text>

  <path class="rel" d="M785 586 V690"/>
  <text class="label" x="796" y="632">1</text>
  <text class="label" x="798" y="678">0..*</text>
  <path class="rel" d="M607 690 V586 H785"/>
  <path class="rel" d="M750 800 H830"/>
  <text class="label" x="760" y="785">1</text>
  <text class="label" x="803" y="824">0..*</text>
  <path class="rel" d="M750 850 H1185"/>
  <text class="label" x="760" y="835">1</text>
  <text class="label" x="1152" y="874">0..1</text>

  <path class="rel" d="M1350 360 V540 H1475"/>
  <text class="label" x="1360" y="390">1</text>
  <text class="label" x="1442" y="528">0..*</text>
  <line class="rel" x1="1735" y1="540" x2="1810" y2="540"/>
  <text class="label" x="1742" y="525">1</text>
  <text class="label" x="1784" y="563">1..*</text>
  <line class="rel" x1="1952" y1="650" x2="1952" y2="705"/>
  <text class="label" x="1964" y="672">1</text>
  <text class="label" x="1964" y="697">1..*</text>
  <line class="rel" x1="1605" y1="650" x2="1605" y2="750"/>
  <text class="label" x="1617" y="680">1</text>
  <text class="label" x="1617" y="738">0..*</text>

  <path class="rel" d="M785 586 V1030 H607 V1040"/>
  <text class="label" x="796" y="1008">1</text>
  <text class="label" x="620" y="1032">0..*</text>
  <line class="rel" x1="750" y1="1150" x2="830" y2="1150"/>
  <text class="label" x="760" y="1135">1</text>
  <text class="label" x="800" y="1174">1</text>
  <line class="rel" x1="1115" y1="1150" x2="1185" y2="1150"/>
  <text class="label" x="1124" y="1135">1</text>
  <text class="label" x="1152" y="1174">0..*</text>
  <path class="rel-dash" d="M330 1318 H465"/>
  <text class="label" x="350" y="1304">0..1 coupon</text>

  <path class="rel" d="M785 586 V995 H330"/>
  <text class="label" x="342" y="980">cart items</text>

  <path class="rel" d="M1760 1150 H1810"/>
  <text class="label" x="1768" y="1135">1</text>
  <text class="label" x="1784" y="1174">0..*</text>
  <path class="rel" d="M1205 360 V1010 H1618 V1040"/>
  <text class="label" x="1216" y="392">course</text>
  <path class="rel" d="M1945 345 V1010 H1618 V1040"/>
  <text class="label" x="1958" y="388">lecture</text>
  <line class="rel" x1="1760" y1="1375" x2="1810" y2="1375"/>
  <text class="label" x="1768" y="1360">1</text>
  <text class="label" x="1784" y="1399">0..*</text>
  <path class="rel-dash" d="M1618 1260 V1300"/>
  <text class="label" x="1632" y="1286">uses KB</text>

  <rect class="note" x="80" y="625" width="310" height="175" rx="8"/>
  <text class="card" x="100" y="656">Service layer examples</text>
  <text class="member" x="100" y="690">CourseService</text>
  <text class="member" x="100" y="716">EnrollmentService</text>
  <text class="member" x="100" y="742">PaymentService / OrderService</text>
  <text class="member" x="100" y="768">QuizService</text>
  <text class="member" x="100" y="794">AiChatOrchestratorService</text>
</svg>
